<svg height="552pt" viewBox="-17 -82 552 552" width="552pt" xmlns="http://www.w3.org/2000/svg"><path d="m58.75 384.675781h400c32.429688-.035156 58.714844-26.316406 58.75-58.75v-271.425781c-.035156-32.429688-26.320312-58.714844-58.75-58.75h-400c-32.429688.035156-58.7148438 26.320312-58.75 58.75v271.425781c.0351562 32.433594 26.320312 58.714844 58.75 58.75zm0-17.5c-9.027344.011719-17.808594-2.957031-24.976562-8.449219l119.625-122.355468c2.21875-2.230469 3.066406-5.480469 2.226562-8.507813-.839844-3.03125-3.238281-5.375-6.285156-6.144531-3.050782-.773438-6.277344.148438-8.457032 2.421875l-118.507812 121.214844c-3.203125-5.972657-4.878906-12.648438-4.875-19.429688v-252.136719l203.355469 172.191407c21.894531 18.636719 54.082031 18.628906 75.960937-.035157l203.183594-172.324218v252.304687c.007812 6.808594-1.679688 13.503907-4.90625 19.492188l-119.21875-121.300781c-3.394531-3.414063-8.90625-3.449219-12.34375-.078126-3.433594 3.382813-3.496094 8.894532-.136719 12.34375l120.28125 122.382813c-7.160156 5.464844-15.917969 8.421875-24.925781 8.410156zm0-353.925781h400c21.34375.03125 39.148438 16.3125 41.078125 37.574219l-214.328125 181.777343c-15.363281 13.101563-37.964844 13.109376-53.335938.019532l-214.5-181.628906c1.835938-21.328126 19.675782-37.710938 41.085938-37.742188zm0 0"/></svg>